SplineFontDB: 3.0
FontName: Untitled1
FullName: Untitled1
FamilyName: Untitled1
Weight: Regular
Copyright: Copyright (c) 2018, xdzeng
UComments: "2018-8-22: Created with FontForge (http://fontforge.org)"
Version: 001.000
ItalicAngle: 0
UnderlinePosition: -100
UnderlineWidth: 50
Ascent: 800
Descent: 200
InvalidEm: 0
LayerCount: 2
Layer: 0 0 "Back" 1
Layer: 1 0 "Fore" 0
XUID: [1021 259 345145688 13896]
OS2Version: 0
OS2_WeightWidthSlopeOnly: 0
OS2_UseTypoMetrics: 1
CreationTime: 1534952671
ModificationTime: 1534952842
OS2TypoAscent: 0
OS2TypoAOffset: 1
OS2TypoDescent: 0
OS2TypoDOffset: 1
OS2TypoLinegap: 0
OS2WinAscent: 0
OS2WinAOffset: 1
OS2WinDescent: 0
OS2WinDOffset: 1
HheadAscent: 0
HheadAOffset: 1
HheadDescent: 0
HheadDOffset: 1
OS2Vendor: 'PfEd'
DEI: 91125
Encoding: UnicodeBmp
Compacted: 1
UnicodeInterp: none
NameList: AGL For New Fonts
DisplaySize: -48
AntiAlias: 1
FitToEm: 0
WinInfo: 0 28 9
BeginChars: 65536 46

StartChar: uniE000
Encoding: 57344 57344 0
Width: 679
Flags: W
HStem: 0 46<532.689 584.689> 187 51<154 409> 636 49<336.309 388.309>
LayerCount: 2
Fore
SplineSet
154 238 m 1
 409 238 l 1
 282 636 l 1
 154 238 l 1
485 0 m 1
 425 187 l 1
 137 187 l 1
 77 0 l 1
 16 0 l 1
 245 685 l 1
 431 685 l 1
 662 0 l 1
 485 0 l 1
388.309489051 636 m 1
 336.309489051 636 l 1
 532.689051095 46 l 1
 584.689051095 46 l 1
 388.309489051 636 l 1
EndSplineSet
EndChar

StartChar: uniE001
Encoding: 57345 57345 1
Width: 714
Flags: W
HStem: 0 50<171 222 282 438.475> 336 48<282 439> 635 50<171 222 282 438.11>
VStem: 111 60<50 635> 222 60<50 336 384 635> 439 60<62.9395 324.073 404.23 613.062> 557 61<436.831 582.747> 588 62<112.908 273.129>
LayerCount: 2
Fore
SplineSet
376 635 m 2xfc
 282 635 l 1
 282 384 l 1
 415 384 l 2
 423.248046875 384 431.259765625 384.454101562 439 385.3515625 c 1
 439 630.830078125 l 1
 420.051757812 633.6796875 399.006835938 635 376 635 c 2xfc
171 635 m 1
 171 50 l 1
 222 50 l 1
 222 635 l 1
 171 635 l 1
111 0 m 1
 111 685 l 1
 370 685 l 2
 526 685 618 630 618 514 c 0xfe
 618 426 564 376 492 363 c 1
 575 354 650 308 650 190 c 0xfd
 650 59 554 0 404 0 c 2
 111 0 l 1
439 51.396484375 m 1
 439 335.513671875 l 1
 433.41796875 335.83984375 427.747070312 336 422 336 c 2
 282 336 l 1
 282 50 l 1
 404 50 l 2
 416.135742188 50 427.818359375 50.4541015625 439 51.396484375 c 1
499 62.939453125 m 1
 554.74609375 81.46875 588 121.157226562 588 190 c 0xfd
 588 262.740234375 552.288085938 305.150390625 499 324.073242188 c 1
 499 62.939453125 l 1
499 404.23046875 m 1
 535.012695312 424.99609375 557 461.163085938 557 510 c 0xfe
 557 561.022460938 536.700195312 593.8984375 499 613.0625 c 1
 499 404.23046875 l 1
EndSplineSet
EndChar

StartChar: uniE002
Encoding: 57346 57346 2
Width: 733
Flags: W
HStem: 0 50<171 222 282 473.246> 635 50<171 222 282 478.812>
VStem: 111 60<50 635> 222 60<50 635> 485 60<125.773 565.358> 604 63<199.066 495.002>
LayerCount: 2
Fore
SplineSet
356 635 m 2
 282 635 l 1
 282 50 l 1
 363 50 l 2
 404.952148438 50 447.536132812 56.572265625 485 76.099609375 c 1
 485 611.430664062 l 1
 445.439453125 630.12109375 400.177734375 635 356 635 c 2
348 685 m 2
 507 685 667 630 667 348 c 0
 667 64 500 0 359 0 c 2
 111 0 l 1
 111 685 l 1
 348 685 l 2
171 635 m 1
 171 50 l 1
 222 50 l 1
 222 635 l 1
 171 635 l 1
545 125.7734375 m 1
 580.849609375 171.065429688 604 241.275390625 604 348 c 0
 604 454.754882812 580.845703125 522.6171875 545 565.358398438 c 1
 545 125.7734375 l 1
EndSplineSet
EndChar

StartChar: uniE003
Encoding: 57347 57347 3
Width: 572
Flags: W
HStem: 0 50<171 222 282 526> 330 50<282 474> 635 50<171 222 282 512>
VStem: 111 60<50 635> 222 60<50 330 380 635>
LayerCount: 2
Fore
SplineSet
519 685 m 1
 512 635 l 1
 282 635 l 1
 282 380 l 1
 474 380 l 1
 474 330 l 1
 282 330 l 1
 282 50 l 1
 526 50 l 1
 526 0 l 1
 111 0 l 1
 111 685 l 1
 519 685 l 1
222 635 m 1
 171 635 l 1
 171 50 l 1
 222 50 l 1
 222 635 l 1
EndSplineSet
EndChar

StartChar: uniE004
Encoding: 57348 57348 4
Width: 541
Flags: W
HStem: 0 50<171 222> 318 50<282 468> 635 50<171 222 282 506>
VStem: 111 60<50 635> 222 60<50 318 368 635>
LayerCount: 2
Fore
SplineSet
111 0 m 1
 111 685 l 1
 513 685 l 1
 506 635 l 1
 282 635 l 1
 282 368 l 1
 468 368 l 1
 468 318 l 1
 282 318 l 1
 282 0 l 1
 111 0 l 1
222 635 m 1
 171 635 l 1
 171 50 l 1
 222 50 l 1
 222 635 l 1
EndSplineSet
EndChar

StartChar: uniE005
Encoding: 57349 57349 5
Width: 618
Flags: W
HStem: -11 51<251.961 422.666> 319 50<359 425 479 533> 645 51<262.217 447.865>
VStem: 66 63<189.427 489.756> 190 54<111.648 565.494> 425 54<68.2912 319> 533 59<87.5557 319>
LayerCount: 2
Fore
SplineSet
352 696 m 4
 471 696 532 637 580 591 c 5
 541 551 l 5
 493 600 442 645 352 645 c 4
 314.85300347 645 277.363883133 635.648615967 244 614.866214327 c 5
 244 66 l 5
 242.274929553 66 l 5
 272.759041629 48.4886020639 308.645678166 40 349 40 c 4
 376.393509695 40 401.793945312 46.166015625 425 51.8544921875 c 5
 425 319 l 5
 359 319 l 5
 352 369 l 5
 592 369 l 5
 592 80 l 5
 531 23 451 -11 349 -11 c 4
 179 -11 66 108 66 345 c 4
 66 581 205 696 352 696 c 4
190 565.493891185 m 5
 153.154732652 517.509255579 129 445.79021912 129 345 c 4
 129 238.517450788 150.854315859 161.602505385 190 111.647765175 c 5
 190 565.493891185 l 5
479 68.2912111016 m 5
 499.817339291 78.5027642849 517.900587959 91.005422986 533 105 c 5
 533 319 l 5
 479 319 l 5
 479 68.2912111016 l 5
EndSplineSet
EndChar

StartChar: uniE006
Encoding: 57350 57350 6
Width: 375
Flags: W
HStem: 0 42<162 213> 639 46<162 213>
VStem: 102 60<42 639> 213 60<42 639>
LayerCount: 2
Fore
SplineSet
162 639 m 5
 162 42 l 5
 213 42 l 5
 213 639 l 5
 162 639 l 5
273 0 m 5
 102 0 l 5
 102 685 l 5
 273 685 l 5
 273 0 l 5
EndSplineSet
EndChar

StartChar: uniE007
Encoding: 57351 57351 7
Width: 399
Flags: W
HStem: 639 46<182 233>
VStem: 122 60<-0.183594 639> 233 60<42.7048 639>
LayerCount: 2
Fore
SplineSet
182 -0.18359375 m 5
 213.868164062 31.927734375 233 73.4892578125 233 133 c 6
 233 639 l 5
 182 639 l 5
 182 -0.18359375 l 5
122 -44.2841796875 m 5
 122 685 l 5
 293 685 l 5
 293 130 l 6
 293 -50 165 -88 33 -139 c 5
 15 -93 l 5
 53.96875 -77.2197265625 90.4482421875 -62.060546875 122 -44.2841796875 c 5
EndSplineSet
EndChar

StartChar: uniE008
Encoding: 57352 57352 8
Width: 739
Flags: W
HStem: 0 52<171 222 559.648 626.868> 639 46<171 222>
VStem: 111 60<54 639> 222 60<54 639>
LayerCount: 2
Fore
SplineSet
111 0 m 5
 111 685 l 5
 282 685 l 5
 282 0 l 5
 111 0 l 5
222 54 m 5
 222 639 l 5
 171 639 l 5
 171 54 l 5
 222 54 l 5
403.739779321 405.146115384 m 5
 363 361 l 5
 559.6484375 52 l 5
 626.868164062 52 l 5
 403.739779321 405.146115384 l 5
447.462748142 452.52485083 m 5
 734 0 l 5
 517 0 l 5
 286 366 l 5
 580 685 l 5
 662 685 l 5
 447.462748142 452.52485083 l 5
EndSplineSet
EndChar

StartChar: uniE009
Encoding: 57353 57353 9
Width: 567
Flags: W
HStem: 0 54<171 222 282 539> 639 46<171 222>
VStem: 111 60<54 639> 222 60<56 639>
LayerCount: 2
Fore
SplineSet
222 54 m 1
 222 639 l 1
 171 639 l 1
 171 54 l 5
 222 54 l 1
547 54 m 1
 539 0 l 1
 111 0 l 1
 111 685 l 1
 282 685 l 1
 282 56 l 1
 547 54 l 1
EndSplineSet
EndChar

StartChar: uniE00A
Encoding: 57354 57354 10
Width: 882
Flags: W
HStem: 0 57<695.508 749.508> 628 57<235.18 292.637 640.492 694.492>
LayerCount: 2
Fore
SplineSet
441.666529313 329.666220267 m 1
 551 685 l 1
 747 685 l 1
 813 0 l 1
 643 0 l 1
 612 328 l 2
 601 438 590 564 586 626 c 1
 414 81 l 1
 357 81 l 1
 179 626 l 1
 176 558 165 435 156 330 c 2
 126 0 l 1
 69 0 l 1
 134 685 l 1
 331 685 l 1
 441.666529313 329.666220267 l 1
415.151417628 243.492107292 m 1
 292.637251761 628 l 1
 235.18011257 628 l 1
 387 152 l 1
 415.151417628 243.492107292 l 1
749.508029197 57 m 1
 694.491970803 628 l 1
 640.491970803 628 l 1
 695.508029197 57 l 1
 749.508029197 57 l 1
EndSplineSet
EndChar

StartChar: uniE00B
Encoding: 57355 57355 11
Width: 691
Flags: W
HStem: -11 51<251.294 440.748> 645 51<250.62 440.506>
VStem: 66 63<189.686 493.502> 190 54<112.816 572.795> 447 54<110.186 574.092> 562 63<189.761 495.716>
LayerCount: 2
Fore
SplineSet
345 696 m 0
 512 696 625 573 625 342 c 0
 625 117 515 -11 345 -11 c 0
 180 -11 66 113 66 341 c 0
 66 567 181 696 345 696 c 0
190 572.794634934 m 1
 151.276874621 522.825958192 129 446.252116783 129 341 c 0
 129 237.94115848 151.493280394 162.430267106 190 112.815601654 c 1
 190 572.794634934 l 1
244 620.125630505 m 1
 244 65.301952267 l 1
 273.504004482 48.3233566136 307.604671245 40 345 40 c 0
 383.451408445 40 417.703437775 47.9047136274 447 64.0449293782 c 1
 447 620.623214847 l 1
 417.564468881 637.020465252 383.256119352 645 345 645 c 0
 307.391961633 645 273.353619263 636.840694863 244 620.125630505 c 1
501 110.185735833 m 1
 540.234240213 159.864342699 562 236.509077515 562 342 c 0
 562 447.822705463 539.998617227 524.396513828 501 574.09181114 c 1
 501 110.185735833 l 1
EndSplineSet
EndChar

StartChar: uniE00C
Encoding: 57356 57356 12
Width: 536
Flags: W
HStem: -11 51<151.418 356.974> 645 51<181.03 367.245> 645 17<191 245>
VStem: 66 61<459.427 595.103> 191 54<384 662> 310 54<26 348> 424 61<107.116 261.649>
LayerCount: 2
Fore
SplineSet
191 662 m 1xbe
 245 662 l 1
 245 384 l 1
 191 384 l 1
 191 662 l 1xbe
310 348 m 1
 364 348 l 1
 364 26 l 1
 310 26 l 1
 310 348 l 1
267 696 m 0xde
 356 696 410 668 464 620 c 1
 429 582 l 1
 378 626 332 645 269 645 c 0
 185 645 127 601 127 529 c 0
 127 459 164 427 287 390 c 0
 410 352 485 308 485 187 c 0
 485 70 396 -11 258 -11 c 0
 164 -11 95 22 39 75 c 1
 73 113 l 1
 124 69 177 40 257 40 c 0
 353 40 424 93 424 185 c 0
 424 268 383 302 261 340 c 0
 125 382 66 429 66 528 c 0
 66 625 147 696 267 696 c 0xde
EndSplineSet
EndChar

StartChar: uniE00D
Encoding: 57357 57357 13
Width: 555
Flags: W
HStem: 0 42<252 303> 632 53<15 192 252 303 363 538>
VStem: 192 60<42 632> 303 60<42 632>
LayerCount: 2
Fore
SplineSet
538 632 m 1
 363 632 l 1
 363 0 l 1
 192 0 l 1
 192 632 l 1
 15 632 l 1
 15 685 l 1
 545 685 l 1
 538 632 l 1
252 632 m 1
 252 42 l 1
 303 42 l 1
 303 632 l 1
 252 632 l 1
EndSplineSet
EndChar

StartChar: uniE00E
Encoding: 57358 57358 14
Width: 712
Flags: W
HStem: -11 52<276.024 453.281> 639 46<161 212>
VStem: 101 60<133.539 639> 212 60<91.4701 639> 550 61<133.539 685>
LayerCount: 2
Fore
SplineSet
272 54.9746504888 m 1
 296.913418938 45.8054819166 325.201546282 41 356 41 c 0
 471 41 550 109 550 219 c 2
 550 685 l 1
 611 685 l 1
 611 214 l 2
 611 82 506 -11 356 -11 c 0
 204 -11 101 82 101 214 c 2
 101 685 l 1
 272 685 l 1
 272 54.9746504888 l 1
212 91.4700720451 m 1
 212 639 l 1
 161 639 l 1
 161 219 l 2
 161 165.342040779 179.694434463 121.966020513 212 91.4700720451 c 1
EndSplineSet
EndChar

StartChar: uniE00F
Encoding: 57359 57359 15
Width: 546
Flags: W
HStem: 0 21G<233.46 313.511> 636 49<96.1798 151.327>
LayerCount: 2
Fore
SplineSet
530 685 m 5
 307 0 l 5
 240 0 l 5
 16 685 l 5
 199 685 l 5
 330.466444907 243.332964831 l 5
 468 685 l 5
 530 685 l 5
302.371798197 153.111496273 m 5
 151.326930465 636 l 5
 96.1797752809 636 l 5
 274 62 l 5
 302.371798197 153.111496273 l 5
EndSplineSet
EndChar

StartChar: uniE010
Encoding: 57360 57360 16
Width: 810
Flags: W
HStem: 0 21G<176.591 258.854 549.146 633.38> 636 49<101.127 150.515 449.919 499.874>
LayerCount: 2
Fore
SplineSet
779 685 m 5
 629 0 l 5
 554 0 l 5
 404 618 l 5
 254 0 l 5
 181 0 l 5
 30 685 l 5
 201 685 l 5
 279.273381295 300.35971223 l 5
 371 685 l 5
 538 685 l 5
 637.126760563 277.478873239 l 5
 722 685 l 5
 779 685 l 5
249.413579014 175.147607997 m 5
 150.515328467 636 l 5
 101.12718601 636 l 5
 221 56 l 5
 249.413579014 175.147607997 l 5
613.846004873 165.695702785 m 5
 499.874452555 636 l 5
 449.918918919 636 l 5
 591 56 l 5
 613.846004873 165.695702785 l 5
EndSplineSet
EndChar

StartChar: uniE011
Encoding: 57361 57361 17
Width: 555
Flags: W
HStem: 0 49<378 503> 636 49<63 192>
LayerCount: 2
Fore
SplineSet
374 49 m 5
 503 49 l 5
 507 0 l 5
 378 0 l 5
 374 49 l 5
63 685 m 5
 192 685 l 5
 192 636 l 5
 63 636 l 5
 63 685 l 5
299.348632812 444.485351562 m 5
 457 685 l 5
 525 685 l 5
 329.322265625 386.47265625 l 5
 299.348632812 444.485351562 l 5
256.752929688 269.65625 m 5
 80 0 l 5
 12 0 l 5
 225.00390625 324.9609375 l 5
 256.752929688 269.65625 l 5
140 685 m 5
 208 685 l 5
 545 0 l 5
 477 0 l 5
 140 685 l 5
16 685 m 5
 84 685 l 5
 421 0 l 5
 353 0 l 5
 16 685 l 5
EndSplineSet
EndChar

StartChar: uniE012
Encoding: 57362 57362 18
Width: 647
Flags: W
HStem: 0 49<269 398> 636 49<59 188>
VStem: 246 60<49 253.711> 269 37<0 49> 356 60<49 287> 356 42<0 49>
LayerCount: 2
Fore
SplineSet
269 49 m 1xd4
 398 49 l 1
 398 0 l 1
 269 0 l 1
 269 49 l 1xd4
59 685 m 1
 188 685 l 1
 188 636 l 1
 59 636 l 1
 59 685 l 1
633 685 m 1
 416 288 l 1
 416 0 l 1xc8
 356 0 l 1xc4
 356 287 l 1xc8
 137 685 l 1
 204 685 l 1
 388 341 l 1
 569 685 l 1
 633 685 l 1
306 263.788085938 m 25xd0
 306 0 l 1xd0
 246 0 l 1
 246 253.7109375 l 1xe0
 13 685 l 1
 80 685 l 1
 306 263.788085938 l 25xd0
EndSplineSet
EndChar

StartChar: uniE013
Encoding: 57363 57363 19
Width: 566
Flags: W
HStem: -11 47<157.139 324.41 471.829 494.22> 15 21<170 228> 272 42<174.647 332> 485 49<168.028 367.133> 485 19<300 358>
VStem: 56 62<74.4731 218.279> 170 58<15 285> 300 58<34 272 314 504> 300 32<272 314> 403 58<99.9179 446.646>
LayerCount: 2
Fore
SplineSet
358 34 m 1x2f40
 300 34 l 1
 300 504 l 1
 358 504 l 1
 358 34 l 1x2f40
228 15 m 1x6640
 170 15 l 1
 170 285 l 1
 228 285 l 1
 228 15 l 1x6640
403 365 m 2
 403 448 369 485 282 485 c 0
 205 485 155 459 105 436 c 1
 85 479 l 1
 142 505 198 534 290 534 c 0
 409 534 461 475 461 368 c 2
 461 116 l 2
 461 58 477 41 505 30 c 1
 492 -11 l 1
 446 -2 419 21 411 77 c 1
 374 17 288 -11 218 -11 c 0
 117 -11 56 52 56 145 c 0
 56 255 139 314 273 314 c 2
 332 314 l 1
 332 272 l 1
 282 272 l 2
 177 272 118 231 118 148 c 0
 118 76 159 36 228 36 c 0xb6c0
 294 36 370 69 403 128 c 1
 403 365 l 2
EndSplineSet
EndChar

StartChar: uniE014
Encoding: 57364 57364 20
Width: 677
Flags: W
HStem: -11 48<329.74 487.495> 0 48<124 226> 25 12<442 496> 486 48<335.212 490.803> 695 21G<105 266>
VStem: 105 58<48 695> 124 39<0 48> 208 58<91.6505 422.873 451 736> 208 18<0 48> 442 58<25 497> 552 61<130.787 402.821>
LayerCount: 2
Fore
SplineSet
500 25 m 5x3860
 442 25 l 5
 442 506 l 5
 500 497 l 5
 500 25 l 5x3860
105 743 m 1x1d60
 266 743 l 1
 266 695 l 1
 105 695 l 1
 105 743 l 1x1d60
124 48 m 1x5ae0
 226 48 l 1
 226 0 l 1
 124 0 l 1
 124 48 l 1x5ae0
163 0 m 1
 105 0 l 1
 105 706 l 1x5c60
 163 713 l 1
 163 0 l 1
423 534 m 0
 542 534 613 438 613 264 c 0
 613 96 541 -11 415 -11 c 0x9960
 349 -11 298 22 264 66 c 1
 258 0 l 1
 208 0 l 1x58e0
 208 736 l 1
 266 743 l 1
 266 451 l 1x5960
 303 501 355 534 423 534 c 0
404 37 m 0
 496 37 552 112 552 264 c 0
 552 418 500 486 411 486 c 0
 343 486 301 446 266 396 c 1
 266 119 l 1
 299 71 345 37 404 37 c 0
EndSplineSet
EndChar

StartChar: uniE015
Encoding: 57365 57365 21
Width: 469
Flags: W
HStem: -11 51<198.653 372.911> 34 6<192 240> 484 50<198.624 375.402>
VStem: 64 62<135.312 383.66> 182 58<34 491>
LayerCount: 2
Fore
SplineSet
240 34 m 1x78
 182 34 l 1
 182 491 l 1
 240 498 l 1
 240 34 l 1x78
285 534 m 0
 344 534 389 519 433 481 c 1
 404 443 l 1
 370 470 336 484 288 484 c 0
 193 484 126 410 126 259 c 0
 126 109 192 40 287 40 c 0
 336 40 371 56 408 84 c 1
 436 45 l 1
 395 10 345 -11 286 -11 c 0xb8
 152 -11 64 88 64 258 c 0
 64 426 151 534 285 534 c 0
EndSplineSet
EndChar

StartChar: uniE016
Encoding: 57366 57366 22
Width: 682
Flags: W
HStem: 0 48<447 561> 34 3<182 240> 486 48<194.506 357.82> 695 48<416 577>
VStem: 64 62<129.174 387.626> 182 58<34 491> 416 58<102.025 432.481 463 695> 447 27<0 48> 519 58<48 751> 519 42<0 48>
LayerCount: 2
Fore
SplineSet
447 48 m 1xbd40
 561 48 l 1
 561 0 l 1
 447 0 l 1
 447 48 l 1xbd40
416 743 m 1x3e80
 577 743 l 1
 577 695 l 1
 416 695 l 1
 416 743 l 1x3e80
577 0 m 1xbc80
 519 0 l 1xbc40
 519 721 l 1
 577 728 l 1
 577 0 l 1xbc80
240 34 m 5x7c
 182 34 l 5
 182 491 l 5
 240 498 l 5
 240 34 l 5x7c
416 743 m 1xbe
 474 736 l 1
 474 0 l 1xbd
 424 0 l 1
 417 80 l 1
 386 28 336 -11 260 -11 c 0
 138 -11 64 93 64 259 c 0
 64 420 141 534 269 534 c 0
 340 534 386 500 416 463 c 1
 416 743 l 1xbe
269 37 m 0x7e
 338 37 380 72 416 134 c 1
 416 407 l 1
 385 451 343 486 279 486 c 0
 187 486 126 407 126 260 c 0
 126 114 181 37 269 37 c 0x7e
EndSplineSet
EndChar

StartChar: uniE017
Encoding: 57367 57367 23
Width: 535
Flags: W
HStem: -11 49<205.817 399.498> 239 45<205 332 390 440> 264 20<332 390> 486 48<201.611 371.771>
VStem: 64 62<137.91 385.075> 172 58<34 239 284 481> 205 25<239 284> 332 58<264 488> 440 57<284 402.463>
LayerCount: 2
Fore
SplineSet
390 264 m 5xb980
 332 264 l 5
 332 493 l 5
 390 488 l 5
 390 264 l 5xb980
230 34 m 5x9d80
 172 34 l 5
 172 481 l 5x9d80
 230 488 l 5x9b80
 230 34 l 5x9d80
126 263 m 4
 126 98 209 38 299 38 c 4
 356 38 404 56 450 90 c 5
 477 53 l 5
 428 13 365 -11 296 -11 c 4
 158 -11 64 89 64 257 c 4
 64 424 155 534 283 534 c 4
 419 534 497 435 497 281 c 4
 497 265 496 249 495 239 c 5
 205 239 l 5
 205 284 l 5
 440 284 l 5xdb80
 440 299 l 6
 440 413 384 486 285 486 c 4
 203 486 126 426 126 263 c 4
EndSplineSet
EndChar

StartChar: uniE018
Encoding: 57368 57368 24
Width: 407
Flags: W
HStem: 0 48<112 279> 476 47<21 112 244 376>
VStem: 112 58<48 476 523 673.109> 221 58<0 476 523 707> 244 35<476 523>
LayerCount: 2
Fore
SplineSet
112 48 m 1xf0
 279 48 l 1
 279 0 l 1
 112 0 l 1
 112 48 l 1xf0
279 0 m 1
 221 0 l 1
 221 707 l 1xf0
 279 714 l 1xe8
 279 0 l 1
244 523 m 1xe8
 384 523 l 1
 376 476 l 1
 244 476 l 1
 244 523 l 1xe8
170 0 m 1
 112 0 l 1
 112 476 l 1
 21 476 l 1
 21 523 l 1
 112 523 l 1
 112 609 l 2
 112 697 169 743 267 743 c 0
 312 743 360 724 399 706 c 1
 379 663 l 1
 345 678 303 695 270 695 c 0
 211 695 170 680 170 607 c 2
 170 0 l 1
EndSplineSet
EndChar

StartChar: uniE019
Encoding: 57369 57369 25
Width: 526
Flags: W
HStem: -205 48<133.071 387.956> 29 50<153.444 373.356> 183 42<179.03 346.433> 209 16<178 222 294 343>
VStem: 33 54<-117.351 -55> 56 60<281.955 432.78> 87 55<91.7891 178.849> 164 58<209 504> 294 58<215 502> 333 58<-174 46> 400 59<280.942 434.188> 439 59<-111.816 -3.37484>
LayerCount: 2
Fore
SplineSet
258 489 m 0xe520
 169 489 116 434 116 357 c 0
 116 273 178 225 258 225 c 0
 343 225 400 273 400 356 c 0
 400 438 347 489 258 489 c 0xe520
497 568 m 1
 515 512 l 1
 479 502 433 498 370 497 c 1
 425 471 459 427 459 355 c 0
 459 253 378 183 260 183 c 0
 235 183 202 186 182 193 c 1
 157 179 142 157 142 133 c 0xe320
 142 102 162 79 225 79 c 2
 330 79 l 2
 434 79 498 23 498 -55 c 0
 498 -149 414 -205 261 -205 c 0
 103 -205 33 -159 33 -55 c 1
 87 -55 l 1xe910
 88 -128 136 -157 261 -157 c 0
 383 -157 439 -120 439 -58 c 0
 439 -2 395 29 321 29 c 2
 216 29 l 2
 129 29 87 71 87 121 c 0xe310
 87 156 108 187 144 210 c 1
 84 241 56 287 56 357 c 0
 56 462 143 534 258 534 c 0
 398 534 446 547 497 568 c 1
222 209 m 1xd1
 164 209 l 1
 164 504 l 1
 222 511 l 1
 222 209 l 1xd1
391 -174 m 1xc140
 333 -174 l 1
 333 46 l 1
 391 53 l 1
 391 -174 l 1xc140
352 215 m 1xc180
 294 215 l 1
 294 505 l 1
 352 502 l 1
 352 215 l 1xc180
EndSplineSet
EndChar

StartChar: uniE01A
Encoding: 57370 57370 26
Width: 670
Flags: W
HStem: -205 48<144.172 387.628> 9 48<184.644 341.906> 38 19<176 234> 475 48<430 554> 486 48<188.189 351.601>
VStem: 58 61<146.121 390.777> 176 58<38 490> 410 58<-142 99 122.933 432.481> 430 38<475 523> 513 58<-20.6734 475> 513 41<475 523>
LayerCount: 2
Fore
SplineSet
263 57 m 0xcf
 333 57 374 93 410 155 c 1
 410 407 l 1
 379 451 336 486 273 486 c 0
 181 486 119 407 119 270 c 0
 119 134 174 57 263 57 c 0xcf
410 -142 m 1
 410 99 l 1
 380 47 329 9 253 9 c 0
 132 9 58 113 58 269 c 0
 58 420 134 534 263 534 c 0xcf
 337 534 382 497 413 459 c 1
 418 523 l 1
 468 523 l 1x9680
 468 -142 l 1
 410 -142 l 1
571 90 m 17x8640
 571 -79 459 -205 295 -205 c 0
 200 -205 128 -182 92 -161 c 1
 112 -121 l 1
 148 -141 213 -157 291 -157 c 0
 425 -157 513 -54 513 86 c 9
 571 90 l 17x8640
234 38 m 1xa6
 176 38 l 1
 176 490 l 1
 234 497 l 1
 234 38 l 1xa6
571 90 m 1x9640
 513 86 l 1x9640
 513 523 l 1x9620
 571 523 l 1
 571 90 l 1x9640
430 523 m 1x96a0
 554 523 l 1
 554 475 l 1
 430 475 l 1
 430 523 l 1x96a0
EndSplineSet
EndChar

StartChar: uniE01B
Encoding: 57371 57371 27
Width: 684
Flags: W
HStem: 0 48<129 243 451 565> 514 20G<402 486> 695 21G<105 266>
VStem: 105 58<48 695> 129 34<0 48> 208 58<48 407.444 437 736> 208 35<0 48> 420 58<48 505> 451 27<0 48> 526 58<48 451.523> 526 39<0 48>
LayerCount: 2
Fore
SplineSet
451 48 m 1xe0a0
 565 48 l 1
 565 0 l 1
 451 0 l 1
 451 48 l 1xe0a0
478 0 m 1
 420 0 l 1
 420 505 l 1xe1
 478 512 l 1
 478 0 l 1
105 743 m 1xf4
 266 743 l 1
 266 695 l 1
 105 695 l 1
 105 743 l 1xf4
129 48 m 1xea
 243 48 l 1
 243 0 l 1
 129 0 l 1
 129 48 l 1xea
163 0 m 1
 105 0 l 1
 105 730 l 1xf0
 163 737 l 1
 163 0 l 1
439 534 m 0
 533 534 584 473 584 374 c 2
 584 0 l 1xe440
 526 0 l 1xe020
 526 366 l 2
 526 451 491 487 428 487 c 0
 357 487 308 443 266 379 c 1
 266 0 l 1xe440
 208 0 l 1xe2
 208 736 l 1
 266 743 l 1
 266 437 l 1xe4
 309 496 365 534 439 534 c 0
EndSplineSet
EndChar

StartChar: uniE01C
Encoding: 57372 57372 28
Width: 374
Flags: W
HStem: 0 48<133 247> 481 48<130 244> 605 50<149.133 225.35> 739 50<149.133 225.35>
VStem: 95 49<660.609 733.391> 105 164<0 48 481 529> 133 30<0 48 481 529> 211 36<0 48 481 529> 231 48<660.609 733.391>
LayerCount: 2
Fore
SplineSet
95 697 m 4xf880
 95 748 136 789 187 789 c 4
 238 789 279 748 279 697 c 4
 279 646 238 605 187 605 c 4
 136 605 95 646 95 697 c 4xf880
130 529 m 5
 244 529 l 5
 244 481 l 5
 130 481 l 5
 130 529 l 5
133 48 m 5xf3
 247 48 l 5
 247 0 l 5
 133 0 l 5
 133 48 l 5xf3
269 0 m 5xf4
 211 0 l 5
 211 529 l 5xf1
 269 529 l 5
 269 0 l 5xf4
187 739 m 4
 161 739 144 720 144 697 c 4
 144 674 161 655 187 655 c 4
 214 655 231 674 231 697 c 4xf880
 231 720 214 739 187 739 c 4
163 529 m 5xf2
 163 0 l 5xf2
 105 0 l 5
 105 529 l 5xf4
 163 529 l 5xf2
EndSplineSet
EndChar

StartChar: uniE01D
Encoding: 57373 57373 29
Width: 374
Flags: W
HStem: 481 48<130 244> 605 50<149.133 225.35> 739 50<149.133 225.35>
VStem: 95 49<660.609 733.391> 105 58<-134 481> 130 33<481 529> 211 58<-16.6154 481> 211 33<481 529> 231 48<660.609 733.391>
LayerCount: 2
Fore
SplineSet
130 529 m 1xe5
 244 529 l 1
 244 481 l 1
 130 481 l 1
 130 529 l 1xe5
269 96 m 2xe2
 269 -117 111 -183 24 -223 c 1
 4 -180 l 1
 82 -140 211 -89 211 94 c 2xe2
 211 529 l 1xe1
 269 529 l 1
 269 96 l 2xe2
95 697 m 0xf080
 95 748 136 789 187 789 c 0
 238 789 279 748 279 697 c 0
 279 646 238 605 187 605 c 0
 136 605 95 646 95 697 c 0xf080
187 739 m 0
 161 739 144 720 144 697 c 0
 144 674 161 655 187 655 c 0
 214 655 231 674 231 697 c 0
 231 720 214 739 187 739 c 0
105 -134 m 2xe8
 105 529 l 1xe8
 163 529 l 1xe4
 163 -134 l 2
 105 -134 l 2xe8
EndSplineSet
EndChar

StartChar: uniE01E
Encoding: 57374 57374 30
Width: 641
Flags: W
HStem: 0 48<129 231 477 516 567 579> 695 21G<105 259>
VStem: 105 161<0 48 695 743> 105 58<48 695> 129 34<0 48> 208 23<0 48>
LayerCount: 2
Fore
SplineSet
477 48 m 1xc0
 579 48 l 1
 579 0 l 1
 477 0 l 1
 477 48 l 1xc0
394 373 m 1
 631 0 l 1
 567 0 l 1
 346 350 l 1
 394 373 l 1
105 743 m 1xe0
 266 743 l 1
 254 695 l 1
 105 695 l 1
 105 743 l 1xe0
129 48 m 1xcc
 231 48 l 1
 231 0 l 1
 129 0 l 1
 129 48 l 1xcc
163 0 m 1
 105 0 l 1
 105 730 l 1xe0
 163 737 l 1
 163 0 l 1
266 743 m 1
 266 0 l 1xe0
 208 0 l 1
 208 736 l 1xc4
 266 743 l 1
569 523 m 1
 339 279 l 1
 516 0 l 1
 452 0 l 1
 272 286 l 1
 501 523 l 1
 569 523 l 1
EndSplineSet
EndChar

StartChar: uniE01F
Encoding: 57375 57375 31
Width: 343
Flags: W
HStem: -11 50<152.478 202> 695 48<89 251>
VStem: 89 58<44.2656 695> 193 58<39 743>
LayerCount: 2
Fore
SplineSet
89 743 m 1
 251 743 l 1
 251 695 l 1
 89 695 l 1
 89 743 l 1
193 39 m 1
 193 743 l 1
 251 743 l 1
 251 -11 l 1
 182 -11 l 1
 189 39 l 1
 193 39 l 1
182 -11 m 0
 127 -11 89 21 89 88 c 2
 89 736 l 1
 147 743 l 1
 147 90 l 2
 147 56 161 39 189 39 c 0
 202 39 215 41 226 46 c 1
 251 9 l 1
 237 -2 204 -11 182 -11 c 0
EndSplineSet
EndChar

StartChar: uniE020
Encoding: 57376 57376 32
Width: 953
Flags: W
HStem: 0 48<140 242 424 532 712 820> 475 48<134 236> 487 36<397 455 691 749> 514 20G<391 458 683.5 760.5>
VStem: 140 23<0 48 475 523> 209 58<48 410.106> 209 33<0 48 475 523> 397 58<48 523> 424 31<0 48> 502 58<48 408.73> 502 30<0 48> 691 58<48 523> 712 37<0 48> 796 58<48 454.57> 796 24<0 48>
LayerCount: 2
Fore
SplineSet
712 48 m 1x880a
 820 48 l 1
 820 0 l 1
 712 0 l 1
 712 48 l 1x880a
749 0 m 1
 691 0 l 1
 691 523 l 1
 749 523 l 1xa810
 749 0 l 1
424 48 m 1x88a0
 532 48 l 1
 532 0 l 1
 424 0 l 1
 424 48 l 1x88a0
455 0 m 1
 397 0 l 1
 397 523 l 1
 455 523 l 1xa9
 455 0 l 1
134 523 m 1xc8
 236 523 l 1
 236 475 l 1
 134 475 l 1
 134 523 l 1xc8
140 48 m 1
 242 48 l 1
 242 0 l 1x8a
 140 0 l 1
 140 48 l 1
163 0 m 1
 105 0 l 1
 105 523 l 1xa8
 163 523 l 1xc8
 163 0 l 1
718 534 m 0x9a
 803 534 854 473 854 374 c 2
 854 0 l 1x9a04
 796 0 l 1x9802
 796 366 l 2
 796 451 761 487 707 487 c 0
 644 487 600 443 560 379 c 1
 560 0 l 1xa844
 502 0 l 1xa820
 502 366 l 2
 502 451 468 487 414 487 c 0
 351 487 306 443 267 379 c 1
 267 0 l 1xac40
 209 0 l 1
 209 523 l 5xca
 259 523 l 1xaa
 264 436 l 1
 304 495 357 534 425 534 c 0
 491 534 538 495 554 430 c 1
 594 492 649 534 718 534 c 0x9a
EndSplineSet
EndChar

StartChar: uniE021
Encoding: 57377 57377 33
Width: 685
Flags: W
HStem: 0 48<138 240 442 550> 475 48<132 234> 487 36<422 480> 514 20G<402.5 487.5>
VStem: 138 25<0 48 475 523> 209 58<48 407.444> 209 31<0 48 475 523> 422 58<48 523> 442 38<0 48> 527 58<48 452.403> 527 23<0 48>
LayerCount: 2
Fore
SplineSet
132 523 m 1xc8
 234 523 l 1
 234 475 l 1
 132 475 l 1
 132 523 l 1xc8
442 48 m 1x88a0
 550 48 l 1
 550 0 l 1
 442 0 l 1
 442 48 l 1x88a0
138 48 m 1
 240 48 l 1
 240 0 l 1x8a
 138 0 l 1
 138 48 l 1
480 0 m 5xa880
 422 0 l 1
 422 523 l 1
 480 523 l 1xa9
 480 0 l 5xa880
163 0 m 1
 105 0 l 1
 105 523 l 1xa8
 163 523 l 1xc8
 163 0 l 1
440 534 m 0x9a
 535 534 585 475 585 374 c 2
 585 0 l 1x9a40
 527 0 l 1x9820
 527 366 l 2
 527 452 493 487 429 487 c 0
 358 487 309 443 267 379 c 1
 267 0 l 1xac40
 209 0 l 1
 209 523 l 1xca
 259 523 l 1xaa
 264 435 l 1
 306 494 365 534 440 534 c 0x9a
EndSplineSet
EndChar

StartChar: uniE022
Encoding: 57378 57378 34
Width: 587
Flags: W
HStem: -11 49<203.464 384.439> 485 49<203.113 393.625>
VStem: 64 62<140.414 382.466> 180 58<28 485> 350 58<28 485> 462 61<141.106 384.017>
LayerCount: 2
Fore
SplineSet
408 28 m 5
 350 28 l 5
 350 485 l 5
 408 492 l 5
 408 28 l 5
238 28 m 5
 180 28 l 5
 180 485 l 5
 238 492 l 5
 238 28 l 5
294 534 m 4
 433 534 523 434 523 263 c 4
 523 94 431 -11 293 -11 c 4
 154 -11 64 93 64 261 c 4
 64 429 157 534 294 534 c 4
294 485 m 4
 195 485 126 411 126 261 c 4
 126 114 193 38 293 38 c 4
 393 38 462 113 462 263 c 4
 462 410 395 485 294 485 c 4
EndSplineSet
EndChar

StartChar: uniE023
Encoding: 57379 57379 35
Width: 677
Flags: W
HStem: -179 22<105 163> -11 49<325.528 486.884> 25 13<442 500> 475 48<138 240> 486 48<335.525 491.765>
VStem: 105 58<-157 475> 138 25<475 523> 208 58<-197 61 89.9716 422.873> 208 32<475 523> 442 58<25 497> 552 61<126.839 402.753>
LayerCount: 2
Fore
SplineSet
500 25 m 1xa060
 442 25 l 1
 442 506 l 1
 500 497 l 1
 500 25 l 1xa060
105 -157 m 1x8560
 266 -157 l 1
 266 -205 l 1
 105 -205 l 1
 105 -157 l 1x8560
138 523 m 1x92e0
 240 523 l 1
 240 475 l 1
 138 475 l 1
 138 523 l 1x92e0
163 -179 m 1
 105 -179 l 1
 105 523 l 1x9460
 163 523 l 1
 163 -179 l 1
423 534 m 0x88e0
 552 534 613 433 613 264 c 0
 613 99 545 -11 415 -11 c 0
 349 -11 299 19 266 61 c 1
 266 -197 l 1xc960
 208 -205 l 1
 208 523 l 1
 258 523 l 1xd0e0
 262 446 l 1
 300 500 355 534 423 534 c 0x88e0
404 38 m 0
 500 38 552 114 552 264 c 0
 552 413 504 486 413 486 c 0
 346 486 302 446 266 396 c 1
 266 117 l 1
 299 69 345 38 404 38 c 0
EndSplineSet
EndChar

StartChar: uniE024
Encoding: 57380 57380 36
Width: 682
Flags: W
HStem: -205 48<416 577> 34 3<182 240> 475 48<447 577> 486 48<194.891 358.363>
VStem: 64 62<129.174 387.626> 182 58<34 491> 416 58<-157 76 101.489 433.374> 447 27<475 523> 519 58<-205 516>
LayerCount: 2
Fore
SplineSet
447 523 m 1xed80
 577 523 l 1
 577 475 l 1
 447 475 l 1
 447 523 l 1xed80
416 -157 m 1xce80
 577 -157 l 1
 577 -205 l 1
 416 -205 l 1
 416 -157 l 1xce80
577 -205 m 1
 519 -205 l 1
 519 516 l 1
 577 523 l 1xec80
 577 -205 l 1
240 34 m 1
 182 34 l 1
 182 491 l 1
 240 498 l 1
 240 34 l 1
424 523 m 1
 474 523 l 1
 474 -205 l 1xed80
 416 -197 l 1
 416 76 l 1
 385 26 334 -11 260 -11 c 0
 138 -11 64 93 64 259 c 0
 64 420 141 534 270 534 c 0xde80
 344 534 389 498 420 460 c 1
 424 523 l 1
270 37 m 0
 339 37 381 72 416 133 c 1
 416 408 l 1
 385 452 343 486 280 486 c 0xde80
 187 486 126 407 126 260 c 0
 126 114 181 37 270 37 c 0
EndSplineSet
EndChar

StartChar: uniE025
Encoding: 57381 57381 37
Width: 478
Flags: W
HStem: 0 21G<211 269 211 211> 479 55<377 417> 503 20G<211 261 261 261> 508 20G<465 465>
VStem: 211 58<0 320 0 523>
LayerCount: 2
Fore
SplineSet
130 523 m 1
 244 523 l 1
 244 475 l 1
 130 475 l 1
 130 523 l 1
133 48 m 1xf3
 247 48 l 1
 247 0 l 1
 133 0 l 1
 133 48 l 1xf3
163 523 m 1xf2
 163 0 l 1xf2
 105 0 l 1
 105 523 l 1xf4
 163 523 l 1xf2
413 534 m 0xc8
 434 534 452 532 465 528 c 1x98
 454 473 l 1
 440 477 426 479 408 479 c 0xc8
 336 479 297 427 269 320 c 1
 269 0 l 1
 211 0 l 1
 211 523 l 1
 261 523 l 1xa8
 266 406 l 1
 293 492 341 534 413 534 c 0xc8
EndSplineSet
EndChar

StartChar: uniE026
Encoding: 57382 57382 38
Width: 458
Flags: W
HStem: -11 49<121.102 308.916> 20 18<245 298> 486 48<153.672 326.786>
VStem: 57 60<344.72 452.564> 167 58<286 494> 245 58<20 258> 351 61<79.06 201.881>
LayerCount: 2
Fore
SplineSet
303 20 m 1x7e
 245 20 l 1
 245 258 l 1
 303 265 l 1
 303 20 l 1x7e
225 286 m 1
 167 286 l 1
 167 494 l 1
 225 501 l 1
 225 286 l 1
231 534 m 0
 298 534 349 514 398 476 c 1
 371 438 l 1
 325 470 286 486 233 486 c 0
 164 486 117 452 117 398 c 0
 117 346 151 324 244 299 c 0
 359 269 412 230 412 141 c 0
 412 44 328 -11 223 -11 c 0
 138 -11 81 18 36 56 c 1
 68 93 l 1
 113 58 158 38 223 38 c 0xbe
 298 38 351 74 351 138 c 0
 351 201 322 224 214 254 c 0
 102 283 57 324 57 397 c 0
 57 477 132 534 231 534 c 0
EndSplineSet
EndChar

StartChar: uniE027
Encoding: 57383 57383 39
Width: 376
Flags: W
HStem: -11 21G<202 266> 12 27<215 273> 476 47<18 106 244 363>
VStem: 106 58<59.9862 476 523 607> 215 58<12 476 523 648> 244 29<476 523>
LayerCount: 2
Fore
SplineSet
106 655 m 5xf8
 273 655 l 5xf4
 273 607 l 5
 106 607 l 5
 106 655 l 5xf8
273 12 m 5xf8
 215 12 l 5
 215 648 l 5xf8
 273 655 l 5xf4
 273 12 l 5xf8
244 523 m 1xf4
 370 523 l 1
 363 476 l 1
 244 476 l 1
 244 523 l 1xf4
164 130 m 2
 164 58 194 39 251 39 c 0
 283 39 317 59 344 76 c 1
 367 36 l 1
 332 12 288 -11 244 -11 c 0
 160 -11 106 27 106 127 c 2
 106 476 l 1
 18 476 l 1
 18 523 l 1
 106 523 l 1
 106 648 l 1
 164 655 l 1
 164 130 l 2
EndSplineSet
EndChar

StartChar: uniE028
Encoding: 57384 57384 40
Width: 679
Flags: W
HStem: -11 21G<200.5 287.5> 0 48<442 556> 18 19<205 263> 475 48<128 242 440 554>
VStem: 99 58<73.2545 475> 128 29<475 523> 205 58<18 475> 205 37<475 523> 413 58<20.6667 93 111.103 475> 442 29<0 48 475 523> 516 40<0 48 475 523>
LayerCount: 2
Fore
SplineSet
442 48 m 1x5060
 556 48 l 1
 556 0 l 1
 442 0 l 1
 442 48 l 1x5060
440 523 m 1
 554 523 l 1
 554 475 l 1
 440 475 l 1
 440 523 l 1
574 0 m 1
 516 0 l 1
 516 523 l 1
 574 523 l 1
 574 0 l 1
128 523 m 1x1520
 242 523 l 1
 242 475 l 1
 128 475 l 1
 128 523 l 1x1520
263 18 m 1x3220
 205 18 l 1x3220
 205 523 l 1x3120
 263 523 l 1
 263 18 l 1x3220
471 523 m 1xb060
 471 0 l 1
 422 0 l 1x5060
 418 93 l 1
 382 31 328 -11 247 -11 c 0
 154 -11 99 46 99 149 c 2
 99 523 l 1x9860
 157 523 l 1x9420
 157 155 l 2
 157 72 192 37 261 37 c 0
 329 37 377 82 413 144 c 1
 413 523 l 1xb8a0
 471 523 l 1xb060
EndSplineSet
EndChar

StartChar: uniE029
Encoding: 57385 57385 41
Width: 484
Flags: W
HStem: 0 21G<201.467 288.304> 475 48<51 165>
LayerCount: 2
Fore
SplineSet
51 523 m 1
 165 523 l 1
 165 475 l 1
 51 475 l 1
 51 523 l 1
313 168 m 1
 282 87 l 1
 126 523 l 1
 190 523 l 1
 313 168 l 1
472 523 m 1
 281 0 l 1
 209 0 l 1
 12 523 l 1
 76 523 l 1
 245 51 l 1
 410 523 l 1
 472 523 l 1
EndSplineSet
EndChar

StartChar: uniE02A
Encoding: 57386 57386 42
Width: 732
Flags: W
HStem: 0 21G<157.608 245.458 488.627 577.277> 475 48<49 163 377 471>
VStem: 82 42<495.835 523> 402 42<497.393 523>
LayerCount: 2
Fore
SplineSet
377 523 m 1
 471 523 l 1
 471 475 l 1
 377 475 l 1
 377 523 l 1
49 523 m 5
 163 523 l 5
 163 475 l 5
 49 475 l 5
 49 523 l 5
582 176 m 1
 561 95 l 1
 444 523 l 1
 498 523 l 1
 582 176 l 1
264 181 m 1
 233 100 l 1
 124 523 l 1
 184 523 l 1
 264 181 l 1
710 523 m 1
 572 0 l 1
 494 0 l 1
 368 469 l 1
 240 0 l 1
 163 0 l 1
 22 523 l 1
 82 523 l 1
 204 45 l 1
 336 523 l 1
 402 523 l 1
 532 44 l 1
 653 523 l 1
 710 523 l 1
EndSplineSet
EndChar

StartChar: uniE02B
Encoding: 57387 57387 43
Width: 494
Flags: W
HStem: 0 48<322 436> 475 48<68 182>
LayerCount: 2
Fore
SplineSet
322 48 m 1
 436 48 l 1
 436 0 l 1
 322 0 l 1
 322 48 l 1
68 523 m 1
 182 523 l 1
 182 475 l 1
 68 475 l 1
 68 523 l 1
140 523 m 1
 198 523 l 1
 478 0 l 1
 418 0 l 1
 140 523 l 1
28 523 m 1
 86 523 l 1
 366 0 l 1
 306 0 l 1
 28 523 l 1
243 210 m 1
 98 0 l 1
 31 0 l 1
 212 262 l 1
 243 210 l 1
258 329 m 1
 392 523 l 1
 458 523 l 1
 292 281 l 1
 258 329 l 1
EndSplineSet
EndChar

StartChar: uniE02C
Encoding: 57388 57388 44
Width: 468
Flags: W
HStem: -204 45<58.0667 113.346> 475 48<51 165>
LayerCount: 2
Fore
SplineSet
51 523 m 1
 165 523 l 1
 165 475 l 1
 51 475 l 1
 51 523 l 1
269.885742188 109.52734375 m 1
 126 523 l 1
 189 523 l 1
 301.171875 182.223632812 l 1
 269.885742188 109.52734375 l 1
452 523 m 1
 273 -2 l 2
 234 -116 187 -179 59 -204 c 1
 53 -159 l 1
 158 -133 184 -92 217 0 c 1
 197 0 l 1
 15 523 l 1
 78 523 l 1
 236 43 l 1
 391 523 l 1
 452 523 l 1
EndSplineSet
EndChar

StartChar: uniE02D
Encoding: 57389 57389 45
Width: 535
Flags: W
HStem: 0 50<96 146 214 498> 473 50<52 320 384 438 478 506>
LayerCount: 2
Fore
SplineSet
146 45 m 1
 438 473 l 1
 506 478 l 1
 214 50 l 1
 146 45 l 1
506 523 m 1
 506 478 l 1
 478 473 l 1
 384 473 l 1
 96 50 l 1
 504 50 l 1
 498 0 l 1
 28 0 l 1
 28 45 l 1
 320 473 l 1
 52 473 l 1
 52 523 l 1
 506 523 l 1
EndSplineSet
EndChar
